<?xml version="1.0" encoding="utf-8"?>
<!-- Generator: Adobe Illustrator 24.2.1, SVG Export Plug-In . SVG Version: 6.00 Build 0)  -->
<svg version="1.1" xmlns="http://www.w3.org/2000/svg" xmlns:xlink="http://www.w3.org/1999/xlink" x="0px" y="0px"
	 viewBox="0 0 140 140" style="enable-background:new 0 0 140 140;" xml:space="preserve">
<style type="text/css">
	.st0{fill:#FFFFFF;stroke:#000000;stroke-width:1.5;stroke-miterlimit:10;}
	.st1{fill:none;stroke:#000000;stroke-width:1.5;stroke-linejoin:round;stroke-miterlimit:10;}
</style>
<path class="st0" d="M186.3,104.8c0,8.1-6.5,8.5-6.5,8.5s-28.7,0-42.3,0c-17.2,0-42.8-20.2-44.1-20.8c-6.1-2.6-8.4-3-12.4-3.3
	l-20.4-0.5c-1.1,0-2.6,0.1-5.7,0.1c-17.8,0.2-96.4,11.7-96.4,11.7V40.9c0,0,124.9,0.2,127.5,0.2c14.2,0,17.6-6,35.9-6
	c9.5,0,36.9,0,39,0c2,0,11.3-0.2,11.3,8.7c0,8.1-5.9,8.7-8.1,8.7h-10.9c0,0,14.2,0,16.2,0s11.3-0.2,11.3,8.7c0,8.1-5.9,8.7-8.1,8.7
	h-11.3c0,0,14.2,0,16.2,0s11.3-0.2,11.3,8.7c0,8.1-5.9,8.7-8.1,8.7h-15.2c0,0,14.2,0,16.2,0S193,87.1,193,96c0,8.1-5.9,8.7-8.1,8.7
	c-2.2,0-42.1,0-42.1,0h43.5V104.8z"/>
<polygon class="st0" points="80.8,37.4 60.8,37.4 60.6,92.7 81,92.7 "/>
<path class="st0" d="M70.8,80.8c-9.4,0-17-7.6-17-17s7.6-17,17-17s17,7.6,17,17C87.7,73.2,80.1,80.8,70.8,80.8z"/>
<polyline class="st1" points="81.6,55.8 70.8,63.7 63.1,58.2 "/>
</svg>
