<?xml version="1.0" encoding="utf-8"?>
<svg version="1.1" xmlns="http://www.w3.org/2000/svg" xmlns:xlink="http://www.w3.org/1999/xlink" x="0px" y="0px" viewBox="0 0 140 140" style="enable-background:new 0 0 140 140;" xml:space="preserve">
<style type="text/css">
.st0{fill:none;stroke:#000000;stroke-width:1.5;stroke-miterlimit:10;}
.st1{fill:#FFFFFF;stroke:#000000;stroke-width:1.5;stroke-linejoin:round;stroke-miterlimit:10;}
.st2{fill:none;stroke:#000000;stroke-width:1.5;stroke-linecap:round;stroke-miterlimit:10;}
.st3{fill:none;stroke:#000000;stroke-width:1.5;stroke-linejoin:round;stroke-miterlimit:10;}
</style>
<path class="st0" d="M66.1,19.6h-0.7L65,15c0,0,0-0.6,0.9-1.3c0.9-0.6,2.9-1.3,4-1.3c1.2,0,3.2,0.6,4,1.3c0.9,0.6,0.9,1.3,0.9,1.3 l-0.4,4.6h-0.7"/>
<path class="st1" d="M66.1,18.9h7.8l0.2,32.8l0.7,20.8c0,0-0.6,44.3-0.6,45.3c0,1.1,0,3.9-0.4,5c-0.4,1.2-1.4,3.1-2.5,4.3 c-0.5,0.6-1.4,0.6-1.4,0.6s-0.9,0-1.4-0.6c-1.1-1.2-2.1-3.2-2.5-4.3c-0.4-1.2-0.4-4-0.4-5s-0.4-45.3-0.4-45.3l0.7-21.1L66.1,18.9z"/>
<line class="st2" x1="70" y1="12.6" x2="70" y2="20.1"/>
<rect x="65.1" y="24.8" class="st1" width="9.9" height="3.5"/>
<rect x="65.1" y="31.9" class="st1" width="9.9" height="3.5"/>
<circle cx="69.9" cy="92.4" r="1.1"/>
<circle cx="69.9" cy="97.7" r="1.1"/>
<circle cx="69.9" cy="102.9" r="1.1"/>
<circle cx="69.9" cy="108.2" r="1.1"/>
<circle cx="69.9" cy="113.4" r="1.1"/>
<path class="st1" d="M70,73.8c-6.4,0-11.6-5.2-11.6-11.6S63.6,50.6,70,50.6s11.6,5.2,11.6,11.6S76.4,73.8,70,73.8z"/>
<polyline class="st3" points="77.2,56.9 70,62.1 64.9,58.4 "/>
</svg>
