<?xml version="1.0" encoding="utf-8"?>
<!-- Generator: Adobe Illustrator 24.0.0, SVG Export Plug-In . SVG Version: 6.00 Build 0)  -->
<svg version="1.1" xmlns="http://www.w3.org/2000/svg" xmlns:xlink="http://www.w3.org/1999/xlink" x="0px" y="0px" width="104px" height="104px" viewBox="0 0 104 104" style="enable-background:new 0 0 104 104;" xml:space="preserve">
<style type="text/css">
.st0{fill:none;stroke:#000000;stroke-width:1.5;stroke-linejoin:round;stroke-miterlimit:10;}
.st1{fill:none;stroke:#000000;stroke-width:1.5;stroke-linecap:round;stroke-linejoin:round;stroke-miterlimit:10;}
</style>
<g>
	<path class="st0" d="M72.5,24.6H58.4c0,0,0.8,55.2,0.8,56.6s-0.1,5.6,0.6,7.2c0.6,1.6,2.1,4.5,3.6,6.2c0.8,0.8,2,0.8,2,0.8 s1.3,0,2-0.8c1.6-1.7,3-4.6,3.6-6.2c0.6-1.6,0.6-5.8,0.6-7.2S72.5,24.6,72.5,24.6z"/>
	<circle cx="65.5" cy="59.2" r="1.7"/>
	<circle cx="65.5" cy="66.3" r="1.7"/>
	<circle cx="65.5" cy="73.4" r="1.7"/>
	<circle cx="65.5" cy="80.5" r="1.7"/>
	<circle cx="65.5" cy="52.1" r="1.7"/>
</g>
<g>
	<line class="st0" x1="33.2" y1="42.2" x2="33.2" y2="36.6"/>
	<polyline class="st0" points="46.8,48.4 47,79.6 32.9,79.6 33.1,48.4 	"/>
	<line class="st0" x1="46.7" y1="36.6" x2="46.7" y2="42.4"/>
	<polyline class="st0" points="33.3,30.5 33.3,24.6 46.6,24.6 46.6,30.5 	"/>
	<rect x="31.5" y="30.5" class="st0" width="17" height="6"/>
	<rect x="31.5" y="42.4" class="st0" width="17" height="6"/>
	<line class="st1" x1="40" y1="10.9" x2="40" y2="22.3"/>
	<path class="st0" d="M40,8.5c-2.7,0-5.4,0.2-6.9,0.6c-0.3,0.1-0.6,0.4-0.8,0.8c-0.6,1.2,0,16.4,0,17.5h0.8"/>
	<line class="st0" x1="32.1" y1="20.8" x2="40" y2="20.8"/>
	<path class="st0" d="M32,13c0,0,3.1-1.1,7.9-1.1"/>
	<path class="st0" d="M40,8.5c2.7,0,5.4,0.2,6.9,0.6c0.3,0.1,0.6,0.4,0.8,0.8c0.6,1.2,0,16.4,0,17.5h-0.8"/>
	<line class="st0" x1="47.8" y1="20.8" x2="40" y2="20.8"/>
	<path class="st0" d="M47.9,13c0,0-3.1-1.1-7.9-1.1"/>
</g>
</svg>
