<?xml version="1.0" encoding="utf-8"?>
<svg version="1.1" xmlns="http://www.w3.org/2000/svg" xmlns:xlink="http://www.w3.org/1999/xlink" x="0px" y="0px" width="104px" height="104px" viewBox="0 0 104 104" style="enable-background:new 0 0 104 104;" xml:space="preserve">
<style type="text/css">
.st0{fill:none;stroke:#000000;stroke-width:1.5;stroke-linejoin:round;stroke-miterlimit:10;}
</style>
<path d="M50,17.5c18.3,0,33.1,14.9,33.1,33.1S68.2,83.8,50,83.8S16.9,68.9,16.9,50.6S31.7,17.5,50,17.5 M50,16 c-19.1,0-34.6,15.5-34.6,34.6S30.9,85.3,50,85.3s34.6-15.5,34.6-34.6S69.1,16,50,16L50,16z"/>
<polyline points="83.6,53.9 87.5,53.9 88.6,52.6 88.6,49.5 87.5,48.2 83.6,48.2 "/>
<polyline class="st0" points="73.1,33.5 50,50.3 33.6,38.6 "/>
<path d="M31.5,22.7c0,0,0.4-9.8,0.4-10c0-0.2,0.3-0.7,0.8-0.7c0.5,0,1.3,0,1.3,0s0.4,0,0.4,0.6c0,0.9,0,2.1,0,8.5"/>
<path d="M68.5,22.7c0,0-0.4-9.8-0.4-10c0-0.2-0.3-0.7-0.8-0.7s-1.3,0-1.3,0s-0.4,0-0.4,0.6c0,0.9,0,2.1,0,8.5"/>
<path d="M69,78.1c0,0-0.4,12.7-0.4,13S68.3,92,67.8,92s-1.3,0-1.3,0s-0.4,0-0.4-0.8c0-1,0-11.3,0-11.3"/>
<path d="M30.9,78.1c0,0,0.4,12.7,0.4,13s0.3,0.9,0.8,0.9c0.5,0,1.3,0,1.3,0s0.4,0,0.4-0.8c0-1,0-11.3,0-11.3"/>
</svg>
