<?xml version="1.0" encoding="utf-8"?>
<svg version="1.1" xmlns="http://www.w3.org/2000/svg" xmlns:xlink="http://www.w3.org/1999/xlink" x="0px" y="0px" width="104px" height="104px" viewBox="0 0 104 104" style="enable-background:new 0 0 104 104;" xml:space="preserve">
<style type="text/css">
.st0{fill:none;stroke:#000000;stroke-width:1.35;stroke-miterlimit:10;}
</style>
<path class="st0" d="M50.7,72.3"/>
<path class="st0" d="M50.7,25.2"/>
<path class="st0" d="M49.4,70.6V27.5c0-0.8,0.6-1.4,1.4-1.4h2.4c0.8,0,1.4,0.6,1.4,1.4v43.1c0,0.8-0.6,1.4-1.4,1.4h-2.4 C50,72,49.4,71.4,49.4,70.6z"/>
<path class="st0" d="M49.4,63.1c-0.2-0.4-0.8-0.5-0.8-0.5H25.4c0,0-0.5,0-0.5,0.7"/>
<path class="st0" d="M24.8,70.6c0,0.2,0.2,1.3,0.4,1.6c0.1,0.2,0.5,0.3,1.1,0.3c0,0,20.2-0.3,21.9-0.3c0,0,0.8,0.1,1.3-0.6"/>
<path class="st0" d="M52,17c-11.1,0-21.1,1-27.2,2.6c-1.4,0.4-2.5,1.8-3.2,3.3c-2.3,4.9-1.3,62.6-1.3,63.1c0,0.5,0.2,1,0.9,1 c0,0,2.1-0.1,2.7-0.5c0.6-0.4,0.7-1.3,0.7-2.1c0,0,0.5-47.4,0.5-51.6c2-2.2,24.1-2.8,24.1-2.8"/>
<path class="st0" d="M54.6,63.1c0.2-0.4,0.8-0.5,0.8-0.5h23.3c0,0,0.5,0,0.5,0.7"/>
<path class="st0" d="M79.2,70.6c0,0.2-0.2,1.3-0.4,1.6c-0.1,0.2-0.5,0.3-1.1,0.3c0,0-20.2-0.3-21.9-0.3c0,0-0.8,0.1-1.3-0.6"/>
<path class="st0" d="M52,17c11.1,0,21.1,1,27.2,2.6c1.4,0.4,2.5,1.8,3.2,3.3c2.3,4.9,1.3,62.6,1.3,63.1c0,0.5-0.2,1-0.9,1 c0,0-2.1-0.1-2.7-0.5c-0.6-0.4-0.7-1.3-0.7-2.1c0,0-0.5-47.4-0.5-51.6c-2-2.2-24.1-2.8-24.1-2.8"/>
</svg>
