<?xml version="1.0" encoding="utf-8"?>
<!-- Generator: Adobe Illustrator 24.0.0, SVG Export Plug-In . SVG Version: 6.00 Build 0)  -->
<svg version="1.1" xmlns="http://www.w3.org/2000/svg" xmlns:xlink="http://www.w3.org/1999/xlink" x="0px" y="0px"
	 viewBox="0 0 60 60" style="enable-background:new 0 0 60 60;" xml:space="preserve">
<style type="text/css">
	.st0{fill:none;stroke:#000000;stroke-width:1.4;stroke-linecap:round;stroke-linejoin:round;stroke-miterlimit:10;}
	.st1{fill:none;stroke:#000000;stroke-width:1.8;stroke-linecap:round;stroke-linejoin:round;}
	.st2{fill:none;stroke:#000000;stroke-width:1.8;stroke-linecap:round;stroke-linejoin:round;stroke-dasharray:5.319913e-02,3.192;}
	
		.st3{fill:none;stroke:#000000;stroke-width:1.8;stroke-linecap:round;stroke-linejoin:round;stroke-dasharray:5.687917e-02,3.4128;}
	
		.st4{fill:none;stroke:#000000;stroke-width:1.8;stroke-linecap:round;stroke-linejoin:round;stroke-dasharray:5.626110e-02,3.3757;}
	.st5{fill:none;stroke:#000000;stroke-width:1.8;stroke-linecap:round;stroke-linejoin:round;stroke-dasharray:0,2.3407;}
</style>
<path class="st0" d="M30,56c-3.1-3.1-8.7-6.6-16.4-1.9L7,47c8.7-8.5,9.1-18.7-3.3-26.7l5.8-8.9C14.6,14.6,23.9,13.3,24,4h6h6
	c0.1,9.3,9.4,10.6,14.5,7.4l5.8,8.9c-12.4,8-12,18.2-3.3,26.7l-6.5,7.1C38.7,49.4,33.1,52.9,30,56z"/>
<path class="st1" d="M30,50.5L30,50.5"/>
<path class="st2" d="M27.2,48.9c-2-0.9-4.1-1.3-6.3-1.3c-1.6,0-3.2,0.3-4.9,0.8"/>
<path class="st1" d="M14.6,48.9C14.6,48.9,14.5,48.9,14.6,48.9L14.6,48.9"/>
<path class="st1" d="M12.7,46.9L12.7,46.9L12.7,46.9"/>
<path class="st3" d="M14.6,44.1c2.1-3.6,2.9-7.7,2.4-11.9c-0.6-4.6-2.8-8.8-6.1-11.9"/>
<path class="st1" d="M9.6,19.1C9.6,19,9.6,19,9.6,19.1L9.6,19.1"/>
<path class="st1" d="M11.1,16.7L11.1,16.7L11.1,16.7"/>
<path class="st4" d="M14.5,17.2c0.2,0,0.4,0,0.6,0c2.4,0,4.7-0.5,6.7-1.6c2.4-1.3,4.2-3.3,5.2-5.7"/>
<path class="st1" d="M27.6,8.3C27.6,8.2,27.6,8.2,27.6,8.3L27.6,8.3"/>
<path class="st5" d="M30,8.2L30,8.2c0,0,0.6,0,1.2,0"/>
<path class="st1" d="M32.4,8.2L32.4,8.2L32.4,8.2"/>
<path class="st4" d="M33.7,11.3c1.1,1.8,2.6,3.2,4.5,4.2c2,1.1,4.3,1.6,6.7,1.6c0.8,0,1.5-0.1,2.3-0.2"/>
<path class="st1" d="M48.8,16.7C48.9,16.7,48.9,16.7,48.8,16.7L48.8,16.7"/>
<path class="st1" d="M50.4,19L50.4,19L50.4,19"/>
<path class="st3" d="M47.9,21.4c-2.7,3-4.4,6.7-4.9,10.7c-0.6,4.8,0.6,9.4,3.3,13.4"/>
<path class="st1" d="M47.3,46.9L47.3,46.9L47.3,46.9"/>
<path class="st1" d="M45.5,48.9L45.5,48.9C45.5,48.9,45.4,48.9,45.5,48.9"/>
<path class="st2" d="M42.4,48c-1.1-0.2-2.2-0.4-3.3-0.4c-2.7,0-5.3,0.7-7.7,2.1"/>
<path class="st1" d="M30,50.5L30,50.5"/>
</svg>
