<?xml version="1.0" encoding="utf-8"?>
<!-- Generator: Adobe Illustrator 24.0.0, SVG Export Plug-In . SVG Version: 6.00 Build 0)  -->
<svg version="1.1" id="レイヤー_1" xmlns="http://www.w3.org/2000/svg" xmlns:xlink="http://www.w3.org/1999/xlink" x="0px"
	 y="0px" viewBox="0 0 60 60" style="enable-background:new 0 0 60 60;" xml:space="preserve">
<style type="text/css">
	.st0{fill:none;stroke:#000000;stroke-width:1.5;stroke-linecap:round;stroke-linejoin:round;stroke-miterlimit:10;}
</style>
<path class="st0" d="M30,56c-3.1-3.1-8.7-6.6-16.4-1.9L7,47c8.7-8.5,9.1-18.7-3.3-26.7l5.8-8.9C14.6,14.6,23.9,13.3,24,4h6h6
	c0.1,9.3,9.4,10.6,14.5,7.4l5.8,8.9c-12.4,8-12,18.2-3.3,26.7l-6.5,7.1C38.7,49.4,33.1,52.9,30,56z"/>
<line class="st0" x1="23.7" y1="6.6" x2="23.7" y2="52.2"/>
<line class="st0" x1="36.3" y1="6.6" x2="36.3" y2="52.2"/>
<line class="st0" x1="49" y1="12.2" x2="49" y2="27.1"/>
<line class="st0" x1="49" y1="42.1" x2="49" y2="51.3"/>
<line class="st0" x1="11" y1="51.3" x2="11" y2="42.1"/>
<line class="st0" x1="11" y1="27.1" x2="11" y2="12.2"/>
<line class="st0" x1="3.7" y1="20.3" x2="56.3" y2="20.3"/>
<line class="st0" x1="12.6" y1="38.6" x2="47.4" y2="38.6"/>
</svg>
